<svg version="1.1" xmlns="http://www.w3.org/2000/svg" viewBox="0 0 737.9999694824219 577.3333435058595" width="737.9999694824219" height="577.3333435058595">
  <!-- svg-source:excalidraw -->
  
  <defs>
    <style class="style-fonts">
      @font-face {
        font-family: "Virgil";
        src: url("https://excalidraw.com/Virgil.woff2");
      }
      @font-face {
        font-family: "Cascadia";
        src: url("https://excalidraw.com/Cascadia.woff2");
      }
    </style>
  </defs>
  <rect x="0" y="0" width="737.9999694824219" height="577.3333435058595" fill="#ffffff"></rect><g stroke-linecap="round" transform="translate(10 10) rotate(0 358.99998474121094 278.66667175292974)"><path d="M0 0 C175.5 0, 350.99 0, 718 0 M718 0 C718 169.84, 718 339.68, 718 557.33 M718 557.33 C476.13 557.33, 234.27 557.33, 0 557.33 M0 557.33 C0 346.96, 0 136.59, 0 0" stroke="#000000" stroke-width="1.5" fill="none" stroke-dasharray="1.5 7"></path></g><g stroke-linecap="round" transform="translate(286 222.66671752929688) rotate(0 99.66664123535156 65.33332824707031)"><path d="M32 0 L167.33 0 L174.83 0.5 L181.33 2 L186.83 4.5 L191.33 8 L194.83 12.5 L197.33 18 L198.83 24.5 L199.33 98.67 L198.83 106.17 L197.33 112.67 L194.83 118.17 L191.33 122.67 L186.83 126.17 L181.33 128.67 L174.83 130.17 L167.33 130.67 L32 130.67 L24.5 130.17 L18 128.67 L12.5 126.17 L8 122.67 L4.5 118.17 L2 112.67 L0.5 106.17 L0 98.67 L0.5 24.5 L2 18 L4.5 12.5 L8 8 L12.5 4.5 L18 2 L24.5 0.5 L32 0" stroke="none" stroke-width="0" fill="#868e96"></path><path d="M32 0 M32 0 C62.72 0, 93.45 0, 167.33 0 M32 0 C73.78 0, 115.55 0, 167.33 0 M167.33 0 C188.67 0, 199.33 10.67, 199.33 32 M167.33 0 C188.67 0, 199.33 10.67, 199.33 32 M199.33 32 C199.33 47.58, 199.33 63.15, 199.33 98.67 M199.33 32 C199.33 58.02, 199.33 84.03, 199.33 98.67 M199.33 98.67 C199.33 120, 188.67 130.67, 167.33 130.67 M199.33 98.67 C199.33 120, 188.67 130.67, 167.33 130.67 M167.33 130.67 C135.87 130.67, 104.41 130.67, 32 130.67 M167.33 130.67 C118.78 130.67, 70.22 130.67, 32 130.67 M32 130.67 C10.67 130.67, 0 120, 0 98.67 M32 130.67 C10.67 130.67, 0 120, 0 98.67 M0 98.67 C0 81.32, 0 63.98, 0 32 M0 98.67 C0 81.56, 0 64.46, 0 32 M0 32 C0 10.67, 10.67 0, 32 0 M0 32 C0 10.67, 10.67 0, 32 0" stroke="#000000" stroke-width="1" fill="none"></path></g><g stroke-linecap="round" transform="translate(294.0000762939453 72.33338928222656) rotate(0 79.33332824707031 53)"><path d="M0 0 C41.75 0, 83.5 0, 158.67 0 M0 0 C41.86 0, 83.73 0, 158.67 0 M158.67 0 C158.67 30.55, 158.67 61.09, 158.67 106 M158.67 0 C158.67 36.64, 158.67 73.28, 158.67 106 M158.67 106 C100.07 106, 41.48 106, 0 106 M158.67 106 C117.53 106, 76.4 106, 0 106 M0 106 C0 82.85, 0 59.7, 0 0 M0 106 C0 82.99, 0 59.98, 0 0" stroke="#000000" stroke-width="1" fill="none"></path></g><g stroke-linecap="round" transform="translate(300.00001525878906 429.00006103515625) rotate(0 79.33332824707031 53)"><path d="M0 0 C43.7 0, 87.41 0, 158.67 0 M0 0 C44.49 0, 88.98 0, 158.67 0 M158.67 0 C158.67 23.6, 158.67 47.2, 158.67 106 M158.67 0 C158.67 34.34, 158.67 68.68, 158.67 106 M158.67 106 C113.96 106, 69.25 106, 0 106 M158.67 106 C122.33 106, 86 106, 0 106 M0 106 C0 84.55, 0 63.1, 0 0 M0 106 C0 75.8, 0 45.6, 0 0" stroke="#000000" stroke-width="1" fill="none"></path></g><g stroke-linecap="round" transform="translate(71.33335876464844 241.66668701171875) rotate(0 79.33332824707031 67.5)"><path d="M0 0 C41.93 0, 83.85 0, 158.67 0 M0 0 C47.75 0, 95.5 0, 158.67 0 M158.67 0 C158.67 44.14, 158.67 88.27, 158.67 135 M158.67 0 C158.67 41.51, 158.67 83.03, 158.67 135 M158.67 135 C120.59 135, 82.52 135, 0 135 M158.67 135 C115.44 135, 72.21 135, 0 135 M0 135 C0 96.28, 0 57.56, 0 0 M0 135 C0 101.58, 0 68.16, 0 0" stroke="#000000" stroke-width="1" fill="none"></path></g><g transform="translate(77.75164794921875 246.66668701171875) rotate(0 72.9150390625 62.5)"><text x="72.9150390625" y="0" font-family="Virgil, Segoe UI Emoji" font-size="20px" fill="#000000" text-anchor="middle" style="white-space: pre;" direction="ltr" dominant-baseline="text-before-edge">On demand use </text><text x="72.9150390625" y="25" font-family="Virgil, Segoe UI Emoji" font-size="20px" fill="#000000" text-anchor="middle" style="white-space: pre;" direction="ltr" dominant-baseline="text-before-edge">tutorial (minimal</text><text x="72.9150390625" y="50" font-family="Virgil, Segoe UI Emoji" font-size="20px" fill="#000000" text-anchor="middle" style="white-space: pre;" direction="ltr" dominant-baseline="text-before-edge">free then paid </text><text x="72.9150390625" y="75" font-family="Virgil, Segoe UI Emoji" font-size="20px" fill="#000000" text-anchor="middle" style="white-space: pre;" direction="ltr" dominant-baseline="text-before-edge">for dedicated </text><text x="72.9150390625" y="100" font-family="Virgil, Segoe UI Emoji" font-size="20px" fill="#000000" text-anchor="middle" style="white-space: pre;" direction="ltr" dominant-baseline="text-before-edge">tutorial)</text></g><g stroke-linecap="round" transform="translate(45.00001525878906 55.3333740234375) rotate(0 79.33332824707031 53)"><path d="M0 0 C32.46 0, 64.91 0, 158.67 0 M0 0 C56.71 0, 113.41 0, 158.67 0 M158.67 0 C158.67 32.25, 158.67 64.49, 158.67 106 M158.67 0 C158.67 40.98, 158.67 81.97, 158.67 106 M158.67 106 C104.91 106, 51.15 106, 0 106 M158.67 106 C114.56 106, 70.45 106, 0 106 M0 106 C0 70.51, 0 35.02, 0 0 M0 106 C0 68.05, 0 30.1, 0 0" stroke="#000000" stroke-width="1" fill="none"></path></g><g transform="translate(67.37533569335938 70.8333740234375) rotate(0 56.9580078125 37.5)"><text x="56.9580078125" y="0" font-family="Virgil, Segoe UI Emoji" font-size="20px" fill="#000000" text-anchor="middle" style="white-space: pre;" direction="ltr" dominant-baseline="text-before-edge">Reviews and </text><text x="56.9580078125" y="25" font-family="Virgil, Segoe UI Emoji" font-size="20px" fill="#000000" text-anchor="middle" style="white-space: pre;" direction="ltr" dominant-baseline="text-before-edge">Ratings by </text><text x="56.9580078125" y="50" font-family="Virgil, Segoe UI Emoji" font-size="20px" fill="#000000" text-anchor="middle" style="white-space: pre;" direction="ltr" dominant-baseline="text-before-edge">customers</text></g><g stroke-linecap="round" transform="translate(531.6667022705078 46.333404541015625) rotate(0 79.33332824707031 53)"><path d="M0 0 C45.3 0, 90.6 0, 158.67 0 M0 0 C36.1 0, 72.21 0, 158.67 0 M158.67 0 C158.67 28.28, 158.67 56.55, 158.67 106 M158.67 0 C158.67 21.43, 158.67 42.85, 158.67 106 M158.67 106 C95.72 106, 32.77 106, 0 106 M158.67 106 C107.2 106, 55.74 106, 0 106 M0 106 C0 73.86, 0 41.73, 0 0 M0 106 C0 84.78, 0 63.55, 0 0" stroke="#000000" stroke-width="1" fill="none"></path></g><g transform="translate(557.6015930175781 61.833404541015625) rotate(0 53.3984375 37.5)"><text x="53.3984375" y="0" font-family="Virgil, Segoe UI Emoji" font-size="20px" fill="#000000" text-anchor="middle" style="white-space: pre;" direction="ltr" dominant-baseline="text-before-edge">In-app chat </text><text x="53.3984375" y="25" font-family="Virgil, Segoe UI Emoji" font-size="20px" fill="#000000" text-anchor="middle" style="white-space: pre;" direction="ltr" dominant-baseline="text-before-edge">system</text><text x="53.3984375" y="50" font-family="Virgil, Segoe UI Emoji" font-size="20px" fill="#000000" text-anchor="middle" style="white-space: pre;" direction="ltr" dominant-baseline="text-before-edge">(Real-time)</text></g><g stroke-linecap="round" transform="translate(519.6667633056641 234.33334350585938) rotate(0 79.33332824707031 53)"><path d="M0 0 C60.85 0, 121.7 0, 158.67 0 M0 0 C34.19 0, 68.39 0, 158.67 0 M158.67 0 C158.67 37.81, 158.67 75.62, 158.67 106 M158.67 0 C158.67 35.26, 158.67 70.52, 158.67 106 M158.67 106 C105.41 106, 52.15 106, 0 106 M158.67 106 C116.55 106, 74.44 106, 0 106 M0 106 C0 70.19, 0 34.38, 0 0 M0 106 C0 78.13, 0 50.26, 0 0" stroke="#000000" stroke-width="1" fill="none"></path></g><g transform="translate(527.6866149902344 262.3333435058594) rotate(0 71.3134765625 25)"><text x="71.3134765625" y="0" font-family="Virgil, Segoe UI Emoji" font-size="20px" fill="#000000" text-anchor="middle" style="white-space: pre;" direction="ltr" dominant-baseline="text-before-edge">Payment system</text><text x="71.3134765625" y="25" font-family="Virgil, Segoe UI Emoji" font-size="20px" fill="#000000" text-anchor="middle" style="white-space: pre;" direction="ltr" dominant-baseline="text-before-edge">(Refundable)</text></g><g stroke-linecap="round" transform="translate(541.0000152587891 397.00006103515625) rotate(0 79.33332824707031 53)"><path d="M0 0 C32.62 0, 65.23 0, 158.67 0 M0 0 C54.55 0, 109.1 0, 158.67 0 M158.67 0 C158.67 35.87, 158.67 71.73, 158.67 106 M158.67 0 C158.67 34.78, 158.67 69.56, 158.67 106 M158.67 106 C111.47 106, 64.26 106, 0 106 M158.67 106 C107.64 106, 56.62 106, 0 106 M0 106 C0 69.18, 0 32.37, 0 0 M0 106 C0 66.11, 0 26.21, 0 0" stroke="#000000" stroke-width="1" fill="none"></path></g><g transform="translate(582.5354919433594 425.00006103515625) rotate(0 37.7978515625 25)"><text x="37.7978515625" y="0" font-family="Virgil, Segoe UI Emoji" font-size="20px" fill="#000000" text-anchor="middle" style="white-space: pre;" direction="ltr" dominant-baseline="text-before-edge">Product </text><text x="37.7978515625" y="25" font-family="Virgil, Segoe UI Emoji" font-size="20px" fill="#000000" text-anchor="middle" style="white-space: pre;" direction="ltr" dominant-baseline="text-before-edge">analytics</text></g><g stroke-linecap="round" transform="translate(61.33332824707031 396.3333740234375) rotate(0 79.33332824707031 53)"><path d="M0 0 C46.9 0, 93.8 0, 158.67 0 M0 0 C55.33 0, 110.67 0, 158.67 0 M158.67 0 C158.67 36.15, 158.67 72.29, 158.67 106 M158.67 0 C158.67 32.66, 158.67 65.31, 158.67 106 M158.67 106 C118.09 106, 77.51 106, 0 106 M158.67 106 C119.38 106, 80.09 106, 0 106 M0 106 C0 64.31, 0 22.62, 0 0 M0 106 C0 80.52, 0 55.04, 0 0" stroke="#000000" stroke-width="1" fill="none"></path></g><g transform="translate(83.76724243164062 411.8333740234375) rotate(0 56.8994140625 37.5)"><text x="56.8994140625" y="0" font-family="Virgil, Segoe UI Emoji" font-size="20px" fill="#000000" text-anchor="middle" style="white-space: pre;" direction="ltr" dominant-baseline="text-before-edge">Instant </text><text x="56.8994140625" y="25" font-family="Virgil, Segoe UI Emoji" font-size="20px" fill="#000000" text-anchor="middle" style="white-space: pre;" direction="ltr" dominant-baseline="text-before-edge">notifications </text><text x="56.8994140625" y="50" font-family="Virgil, Segoe UI Emoji" font-size="20px" fill="#000000" text-anchor="middle" style="white-space: pre;" direction="ltr" dominant-baseline="text-before-edge">system</text></g><g transform="translate(297.3333435058594 275.66668701171875) rotate(0 83.4375 12.5)"><text x="0" y="0" font-family="Virgil, Segoe UI Emoji" font-size="20px" fill="#000000" text-anchor="start" style="white-space: pre;" direction="ltr" dominant-baseline="text-before-edge">Deverpool webapp</text></g><g transform="translate(303.3333435058594 87.66670227050781) rotate(0 73.037109375 37.5)"><text x="0" y="0" font-family="Virgil, Segoe UI Emoji" font-size="20px" fill="#000000" text-anchor="start" style="white-space: pre;" direction="ltr" dominant-baseline="text-before-edge">User accounts</text><text x="0" y="25" font-family="Virgil, Segoe UI Emoji" font-size="20px" fill="#000000" text-anchor="start" style="white-space: pre;" direction="ltr" dominant-baseline="text-before-edge">management</text><text x="0" y="50" font-family="Virgil, Segoe UI Emoji" font-size="20px" fill="#000000" text-anchor="start" style="white-space: pre;" direction="ltr" dominant-baseline="text-before-edge">    Signup/Signin</text></g><g transform="translate(313.0000305175781 457.3333740234375) rotate(0 36.1083984375 12.5)"><text x="0" y="0" font-family="Virgil, Segoe UI Emoji" font-size="20px" fill="#000000" text-anchor="start" style="white-space: pre;" direction="ltr" dominant-baseline="text-before-edge">Others...</text></g><g stroke-linecap="round"><g transform="translate(230.66668701171875 303.3333740234375) rotate(0 27.333328247070312 -0.3333282470703125)"><path d="M0 0 C9.11 -0.11, 45.56 -0.56, 54.67 -0.67 M0 0 C9.11 -0.11, 45.56 -0.56, 54.67 -0.67" stroke="#000000" stroke-width="1" fill="none"></path></g></g><mask></mask><g stroke-linecap="round"><g transform="translate(288.0000305175781 236.3333740234375) rotate(0 -42.66667175292969 -40.33332824707031)"><path d="M0 0 C-14.22 -13.44, -71.11 -67.22, -85.33 -80.67 M0 0 C-14.22 -13.44, -71.11 -67.22, -85.33 -80.67" stroke="#000000" stroke-width="1" fill="none"></path></g></g><mask></mask><g stroke-linecap="round"><g transform="translate(355.3333435058594 221.66671752929688) rotate(0 0.333343505859375 -22)"><path d="M0 0 C0.11 -7.33, 0.56 -36.67, 0.67 -44 M0 0 C0.11 -7.33, 0.56 -36.67, 0.67 -44" stroke="#000000" stroke-width="1" fill="none"></path></g></g><mask></mask><g stroke-linecap="round"><g transform="translate(472.6667175292969 227.00006103515625) rotate(0 29.33331298828125 -38)"><path d="M0 0 C9.78 -12.67, 48.89 -63.33, 58.67 -76 M0 0 C9.78 -12.67, 48.89 -63.33, 58.67 -76" stroke="#000000" stroke-width="1" fill="none"></path></g></g><mask></mask><g stroke-linecap="round"><g transform="translate(481.3333435058594 299.6667175292969) rotate(0 19.66668701171875 0)"><path d="M0 0 C6.56 0, 32.78 0, 39.33 0 M0 0 C6.56 0, 32.78 0, 39.33 0" stroke="#000000" stroke-width="1" fill="none"></path></g></g><mask></mask><g stroke-linecap="round"><g transform="translate(373.3333435058594 351.00006103515625) rotate(0 -0.33331298828125 9)"><path d="M0 0 C-0.11 3, -0.56 15, -0.67 18 M0 0 C-0.11 3, -0.56 15, -0.67 18" stroke="#000000" stroke-width="1" fill="none"></path></g></g><mask></mask><g stroke-linecap="round"><g transform="translate(462.6667175292969 353.00006103515625) rotate(0 39.999969482421875 23.000030517578125)"><path d="M0 0 C13.33 7.67, 66.67 38.33, 80 46 M0 0 C13.33 7.67, 66.67 38.33, 80 46" stroke="#000000" stroke-width="1" fill="none"></path></g></g><mask></mask><g stroke-linecap="round"><g transform="translate(372.0000305175781 378.3333740234375) rotate(0 -0.333343505859375 6)"><path d="M0 0 C-0.11 2, -0.56 10, -0.67 12 M0 0 C-0.11 2, -0.56 10, -0.67 12" stroke="#000000" stroke-width="1" fill="none"></path></g></g><mask></mask><g stroke-linecap="round"><g transform="translate(369.3333435058594 401.00006103515625) rotate(0 -0.33331298828125 9)"><path d="M0 0 C-0.11 3, -0.56 15, -0.67 18 M0 0 C-0.11 3, -0.56 15, -0.67 18" stroke="#000000" stroke-width="1" fill="none"></path></g></g><mask></mask><g stroke-linecap="round"><g transform="translate(300.0000305175781 352.3333740234375) rotate(0 -40 41.333343505859375)"><path d="M0 0 C-13.33 13.78, -66.67 68.89, -80 82.67 M0 0 C-13.33 13.78, -66.67 68.89, -80 82.67" stroke="#000000" stroke-width="1" fill="none"></path></g></g><mask></mask></svg>